<svg width="187" height="28" viewBox="0 0 187 28" fill="none" xmlns="http://www.w3.org/2000/svg">
<g clip-path="url(#clip0)">
<path d="M0 11.0678H6.53822L9.95414 5.39295H29.1894L32.4011 -0.283691H6.64764L0 11.0678Z" fill="#3772FF"/>
<path d="M0 22.6059H6.55645L9.95414 16.7445H22.6403L25.768 11.0679H6.53822L0 22.6059Z" fill="#FFD166"/>
<path d="M3.31738 28.2917H15.9288L19.2517 22.606H6.5564L3.31738 28.2917Z" fill="#9757D7"/>
<path d="M40.8252 6.04053H57.996V9.61586H45.0308V13.3759H56.5206V16.302H45.0308V20.2504H57.996V23.8239H40.8252V6.04053Z" fill="#FCFCFD"/>
<path d="M60.7002 6.0127H66.4323L73.6909 17.6165L80.8966 6.0127H86.388V23.8217H82.2626V11.5997L75.5658 22.505H71.8434L64.8256 11.1663V23.818H60.7002V6.0127Z" fill="#FCFCFD"/>
<path d="M184.646 11.0678H178.106L174.692 5.39295H155.457L152.247 -0.283691H177.999L184.646 11.0678Z" fill="#3772FF"/>
<path d="M184.647 22.6059H178.089L174.693 16.7445H162.007L158.879 11.0679H178.107L184.647 22.6059Z" fill="#FFD166"/>
<path d="M181.33 28.2917H168.718L165.396 22.606H178.089L181.33 28.2917Z" fill="#9757D7"/>
<path d="M97 6.0127H102.732L109.991 17.6165L117.196 6.0127H122.688V23.8217H118.562V11.5997L111.866 22.505H108.141L101.118 11.17V23.8217H97V6.0127Z" fill="#FCFCFD"/>
<rect x="90" y="19.7163" width="4" height="4" fill="#FCFCFD"/>
<path d="M126.65 6.04004H143.821V9.61537H130.856V13.3754H142.346V16.3015H130.856V20.2499H143.821V23.8234H126.65V6.04004Z" fill="#FCFCFD"/>
</g>
<defs>
<clipPath id="clip0">
<rect width="187" height="28" fill="white"/>
</clipPath>
</defs>
</svg>
