<svg width="20" height="20" viewBox="0 0 20 20" fill="none" xmlns="http://www.w3.org/2000/svg">
<g clip-path="url(#clip0)">
<path fill-rule="evenodd" clip-rule="evenodd" d="M8.36614 12.5022C8.82573 12.4777 9.21815 12.8304 9.24265 13.2899C9.27609 13.9172 9.31699 14.414 9.35794 14.8022C9.41292 15.3235 9.73316 15.6403 10.1938 15.693C10.8552 15.7686 11.8561 15.8343 13.3329 15.8343C14.8098 15.8343 15.8107 15.7686 16.472 15.693C16.9335 15.6402 17.2528 15.3243 17.3078 14.8037C17.404 13.892 17.4996 12.3849 17.4996 10.001C17.4996 7.61702 17.404 6.10996 17.3078 5.19827C17.2528 4.6777 16.9335 4.36171 16.472 4.30897C15.8107 4.23336 14.8098 4.16764 13.3329 4.16764C11.8561 4.16764 10.8552 4.23336 10.1938 4.30897C9.73316 4.36163 9.41292 4.67841 9.35794 5.19976C9.31699 5.58797 9.27609 6.08477 9.24265 6.71201C9.21815 7.17159 8.82573 7.5243 8.36614 7.4998C7.90656 7.4753 7.55385 7.08287 7.57835 6.62328C7.61313 5.97092 7.65614 5.44519 7.70046 5.02495C7.83092 3.78794 8.7085 2.80124 10.0045 2.65308C10.7432 2.56865 11.8092 2.50098 13.3329 2.50098C14.8567 2.50098 15.9227 2.56865 16.6613 2.65308C17.9566 2.80115 18.8346 3.78557 18.9652 5.02334C19.0691 6.00769 19.1663 7.57532 19.1663 10.001C19.1663 12.4266 19.0691 13.9943 18.9652 14.9786C18.8346 16.2164 17.9566 17.2008 16.6613 17.3489C15.9227 17.4333 14.8567 17.501 13.3329 17.501C11.8092 17.501 10.7432 17.4333 10.0045 17.3489C8.7085 17.2007 7.83092 16.214 7.70046 14.977C7.65614 14.5568 7.61313 14.031 7.57835 13.3787C7.55385 12.9191 7.90656 12.5267 8.36614 12.5022Z" fill="#777E91"/>
<path fill-rule="evenodd" clip-rule="evenodd" d="M5.17226 12.3284C5.4977 12.6538 5.4977 13.1815 5.17226 13.5069C4.84683 13.8323 4.31919 13.8323 3.99375 13.5069L1.07709 10.5902C0.751648 10.2648 0.751648 9.73716 1.07709 9.41172L3.99375 6.49505C4.31919 6.16962 4.84683 6.16962 5.17226 6.49505C5.4977 6.82049 5.4977 7.34813 5.17226 7.67357L3.67819 9.16764L11.6663 9.16764C12.1266 9.16764 12.4997 9.54074 12.4997 10.001C12.4997 10.4612 12.1266 10.8343 11.6663 10.8343L3.67819 10.8343L5.17226 12.3284Z" fill="#777E91"/>
</g>
<defs>
<clipPath id="clip0">
<rect width="20" height="20" fill="white" transform="translate(0 20.001) rotate(-90)"/>
</clipPath>
</defs>
</svg>
