<svg width="20" height="20" viewBox="0 0 20 20" fill="none" xmlns="http://www.w3.org/2000/svg">
<path fill-rule="evenodd" clip-rule="evenodd" d="M16.6249 5.90949C16.6336 5.25858 16.3896 4.60493 15.8929 4.10826C15.3962 3.61159 14.7426 3.36759 14.0917 3.37625C14.0914 3.37625 14.0919 3.37625 14.0917 3.37625C13.7319 3.38114 13.3722 3.46323 13.0411 3.62249C12.9225 3.67957 12.8074 3.74656 12.6971 3.82346C12.6547 3.85308 12.6 3.85983 12.5522 3.84C12.5044 3.82019 12.4705 3.77675 12.4614 3.72583C12.4378 3.59348 12.4038 3.46473 12.3603 3.34047C12.2388 2.99374 12.043 2.68192 11.7921 2.42406C11.7919 2.42389 11.7923 2.42424 11.7921 2.42406C11.338 1.95767 10.7027 1.66748 10.0003 1.66748C9.29793 1.66748 8.6632 1.95715 8.20905 2.42354C8.20888 2.42371 8.20923 2.42336 8.20905 2.42354C7.95812 2.68139 7.76185 2.99374 7.64036 3.34047C7.59681 3.46473 7.56281 3.59348 7.53922 3.72583C7.53014 3.77675 7.49623 3.82019 7.44845 3.84C7.40062 3.85983 7.34597 3.85307 7.30351 3.82346C7.19324 3.74656 7.07816 3.67957 6.95951 3.62249C6.62842 3.46323 6.26951 3.38115 5.90974 3.37626C5.90949 3.37625 5.90998 3.37626 5.90974 3.37626C5.25882 3.3676 4.60444 3.61159 4.10777 4.10826C3.6111 4.60492 3.3671 5.25858 3.37576 5.90949C3.37576 5.90974 3.37576 5.90925 3.37576 5.90949C3.38065 6.26926 3.46274 6.6289 3.622 6.95999C3.67908 7.07864 3.74607 7.19373 3.82297 7.30399C3.85259 7.34646 3.85934 7.40111 3.83951 7.44894C3.8197 7.49672 3.77626 7.53063 3.72534 7.53971C3.59298 7.5633 3.46423 7.59731 3.33997 7.64085C2.99324 7.76235 2.68142 7.9581 2.42358 8.20903C2.4234 8.2092 2.42375 8.20886 2.42358 8.20903C1.95719 8.66317 1.66699 9.29842 1.66699 10.0008C1.66699 10.7032 1.95666 11.3379 2.42305 11.7921C2.42322 11.7923 2.42287 11.7919 2.42305 11.7921C2.6809 12.043 2.99324 12.2393 3.33997 12.3608C3.46423 12.4043 3.59298 12.4383 3.72534 12.4619C3.77626 12.471 3.8197 12.5049 3.83951 12.5527C3.85934 12.6005 3.85259 12.6552 3.82297 12.6976C3.74607 12.8079 3.67908 12.923 3.622 13.0416C3.46274 13.3727 3.38066 13.7316 3.37577 14.0914C3.37577 14.0916 3.37577 14.0912 3.37577 14.0914C3.36711 14.7423 3.6111 15.3967 4.10777 15.8934C4.60444 16.39 5.25809 16.634 5.909 16.6254C5.90925 16.6254 5.90876 16.6254 5.909 16.6254C6.26876 16.6205 6.62841 16.5384 6.95949 16.3791C7.07815 16.3221 7.19323 16.2551 7.3035 16.1782C7.34597 16.1486 7.40062 16.1418 7.44845 16.1616C7.49623 16.1814 7.53014 16.2249 7.53922 16.2758C7.56281 16.4082 7.59682 16.5369 7.64037 16.6612C7.76186 17.0079 7.95761 17.3197 8.20854 17.5776C8.20871 17.5777 8.20837 17.5774 8.20854 17.5776C8.66268 18.044 9.29793 18.3341 10.0003 18.3341C10.7027 18.3341 11.3375 18.0445 11.7916 17.5781C11.7918 17.5779 11.7914 17.5783 11.7916 17.5781C12.0425 17.3202 12.2388 17.0079 12.3603 16.6612C12.4038 16.5369 12.4378 16.4082 12.4614 16.2758C12.4705 16.2249 12.5044 16.1814 12.5522 16.1616C12.6 16.1418 12.6547 16.1486 12.6972 16.1782C12.8074 16.2551 12.9225 16.3221 13.0412 16.3791C13.3723 16.5384 13.7312 16.6205 14.0909 16.6254C14.0912 16.6254 14.0907 16.6254 14.0909 16.6254C14.7418 16.634 15.3962 16.39 15.8929 15.8934C16.3896 15.3967 16.6336 14.7431 16.6249 14.0921C16.6249 14.0919 16.6249 14.0924 16.6249 14.0921C16.62 13.7324 16.5379 13.3727 16.3787 13.0416C16.3216 12.923 16.2546 12.8079 16.1777 12.6976C16.1481 12.6552 16.1413 12.6005 16.1611 12.5527C16.181 12.5049 16.2244 12.471 16.2753 12.4619C16.4077 12.4383 16.5364 12.4043 16.6607 12.3608C17.0074 12.2393 17.3192 12.0435 17.5771 11.7926C17.5773 11.7924 17.5769 11.7928 17.5771 11.7926C18.0435 11.3385 18.3337 10.7032 18.3337 10.0008C18.3337 9.29842 18.044 8.66368 17.5776 8.20954C17.5774 8.20937 17.5778 8.20971 17.5776 8.20954C17.3198 7.95861 17.0074 7.76235 16.6607 7.64085C16.5364 7.59731 16.4077 7.5633 16.2753 7.53971C16.2244 7.53063 16.181 7.49672 16.1611 7.44894C16.1413 7.40111 16.1481 7.34646 16.1777 7.30399C16.2546 7.19372 16.3216 7.07864 16.3787 6.95998C16.5379 6.62889 16.62 6.26925 16.6249 5.90949C16.6249 5.90974 16.6249 5.90925 16.6249 5.90949ZM14.7144 5.28677C14.4257 4.99809 13.9746 4.96451 13.6506 5.19049C13.159 5.53335 12.5061 5.62516 11.9138 5.37955C11.323 5.13457 10.9259 4.60902 10.8206 4.0183C10.7513 3.62939 10.4086 3.33415 10.0003 3.33415C9.59207 3.33415 9.24934 3.62939 9.18002 4.0183C9.07472 4.60901 8.67763 5.13457 8.08686 5.37955C7.49456 5.62516 6.84169 5.53335 6.3501 5.19049C6.02608 4.96451 5.57496 4.99809 5.28628 5.28677C4.9976 5.57545 4.96402 6.02656 5.19001 6.35058C5.53286 6.84218 5.62467 7.49505 5.37906 8.08735C5.13408 8.67812 4.60852 9.07521 4.01781 9.18051C3.6289 9.24983 3.33366 9.59256 3.33366 10.0008C3.33366 10.4091 3.6289 10.7518 4.01781 10.8211C4.60853 10.9264 5.13408 11.3235 5.37906 11.9143C5.62467 12.5066 5.53286 13.1594 5.19001 13.651C4.96403 13.9751 4.9976 14.4262 5.28628 14.7149C5.57496 15.0035 6.02607 15.0371 6.35009 14.8111C6.84169 14.4683 7.49455 14.3765 8.08686 14.6221C8.67763 14.8671 9.07472 15.3926 9.18002 15.9833C9.24935 16.3722 9.59207 16.6675 10.0003 16.6675C10.4086 16.6675 10.7513 16.3722 10.8206 15.9833C10.9259 15.3926 11.323 14.8671 11.9138 14.6221C12.5061 14.3765 13.159 14.4683 13.6506 14.8111C13.9746 15.0371 14.4257 15.0035 14.7144 14.7149C15.0031 14.4262 15.0366 13.9751 14.8106 13.651C14.4678 13.1595 14.376 12.5066 14.6216 11.9143C14.8666 11.3235 15.3921 10.9264 15.9828 10.8211C16.3717 10.7518 16.667 10.4091 16.667 10.0008C16.667 9.59256 16.3717 9.24983 15.9828 9.18051C15.3921 9.07521 14.8666 8.67812 14.6216 8.08735C14.376 7.49504 14.4678 6.84218 14.8106 6.35058C15.0366 6.02656 15.0031 5.57545 14.7144 5.28677Z" fill="#777E91"/>
<path fill-rule="evenodd" clip-rule="evenodd" d="M10.0003 11.6675C10.9208 11.6675 11.667 10.9213 11.667 10.0008C11.667 9.08034 10.9208 8.33415 10.0003 8.33415C9.07985 8.33415 8.33366 9.08034 8.33366 10.0008C8.33366 10.9213 9.07985 11.6675 10.0003 11.6675ZM10.0003 13.3341C11.8413 13.3341 13.3337 11.8418 13.3337 10.0008C13.3337 8.15986 11.8413 6.66748 10.0003 6.66748C8.15938 6.66748 6.66699 8.15986 6.66699 10.0008C6.66699 11.8418 8.15938 13.3341 10.0003 13.3341Z" fill="#777E91"/>
</svg>
