<svg width="17" height="18" viewBox="0 0 17 18" fill="none" xmlns="http://www.w3.org/2000/svg">
<path fill-rule="evenodd" clip-rule="evenodd" d="M8.39661 3.36551C8.70759 3.36551 8.97415 3.09895 8.97415 2.78796V1.07754C8.97415 0.766559 8.70759 0.5 8.39661 0.5C8.08562 0.5 7.81906 0.766559 7.81906 1.07754V2.78796C7.81906 3.09895 8.08562 3.36551 8.39661 3.36551ZM11.3732 5.92003C10.6179 5.16478 9.55169 4.67609 8.3966 4.67609C7.24152 4.67609 6.17528 5.14257 5.42003 5.92003C4.66478 6.67528 4.17609 7.74152 4.17609 8.8966C4.17609 10.0517 4.66478 11.1179 5.42003 11.8732C6.17528 12.6284 7.24152 13.1171 8.3966 13.1171C9.55169 13.1171 10.6179 12.6506 11.3732 11.8732C12.1284 11.1179 12.6171 10.0517 12.6171 8.8966C12.6171 7.74152 12.1506 6.67528 11.3732 5.92003ZM14.3498 3.76535L13.128 4.98707C12.8837 5.20921 12.5283 5.20921 12.3283 4.98707C12.1062 4.76494 12.1062 4.40953 12.3283 4.1874L13.5501 2.96567C13.7722 2.74354 14.1276 2.74354 14.3498 2.96567C14.5719 3.1878 14.5719 3.54321 14.3498 3.76535ZM16.2157 8.31906H14.5052C14.1943 8.31906 13.9277 8.58562 13.9277 8.89661C13.9277 9.20759 14.1943 9.47415 14.5052 9.47415H16.2157C16.5267 9.47415 16.7932 9.20759 16.7932 8.89661C16.7932 8.58562 16.5267 8.31906 16.2157 8.31906ZM12.3061 12.8061C12.5283 12.584 12.8837 12.584 13.1058 12.8061L14.3275 14.0279C14.5497 14.25 14.5497 14.6054 14.3275 14.8275C14.1054 15.0497 13.75 15.0497 13.5279 14.8275L12.3061 13.6058C12.084 13.3837 12.084 13.0283 12.3061 12.8061ZM8.39661 14.4277C8.08562 14.4277 7.81906 14.6943 7.81906 15.0052V16.7157C7.81906 17.0267 8.08562 17.2932 8.39661 17.2932C8.70759 17.2932 8.97415 17.0267 8.97415 16.7157V15.0052C8.97415 14.6943 8.70759 14.4277 8.39661 14.4277ZM2.44346 14.0279L3.66518 12.8061C3.90953 12.584 4.26494 12.584 4.46486 12.8061C4.68699 13.0283 4.68699 13.3837 4.46486 13.6058L3.24313 14.8275C3.021 15.0497 2.66559 15.0497 2.44346 14.8275C2.22132 14.6054 2.22132 14.25 2.44346 14.0279ZM2.86551 8.89661C2.86551 8.58562 2.59895 8.31906 2.28796 8.31906H0.577544C0.266559 8.31906 0 8.58562 0 8.89661C0 9.20759 0.266559 9.47415 0.577544 9.47415H2.28796C2.59895 9.47415 2.86551 9.20759 2.86551 8.89661ZM4.46486 4.98707C4.24273 5.20921 3.88732 5.20921 3.66518 4.98707L2.44346 3.76535C2.22132 3.54321 2.22132 3.1878 2.44346 2.96567C2.66559 2.74354 3.021 2.74354 3.24313 2.96567L4.46486 4.1874C4.68699 4.40953 4.68699 4.76494 4.46486 4.98707Z" fill="#5294FF"/>
</svg>
