<svg width="14" height="14" viewBox="0 0 14 14" fill="none" xmlns="http://www.w3.org/2000/svg">
<path fill-rule="evenodd" clip-rule="evenodd" d="M13.0879 7.89958C12.955 7.86635 12.8221 7.89958 12.7058 7.98264C12.2738 8.34814 11.7754 8.64718 11.2272 8.84654C10.7122 9.0459 10.1473 9.14558 9.54925 9.14558C8.20356 9.14558 6.97417 8.59734 6.09365 7.71683C5.21314 6.83632 4.6649 5.60693 4.6649 4.26124C4.6649 3.69638 4.76458 3.14814 4.93072 2.64974C5.11346 2.11811 5.37928 1.63632 5.72816 1.22098C5.87768 1.03823 5.84445 0.77242 5.66171 0.622899C5.54541 0.539832 5.4125 0.506605 5.2796 0.539832C3.86746 0.921941 2.63806 1.76923 1.75755 2.89894C0.910268 4.01204 0.411865 5.39095 0.411865 6.88616C0.411865 8.69702 1.14286 10.3417 2.33902 11.5379C3.53519 12.7341 5.1633 13.4651 6.99078 13.4651C8.51921 13.4651 9.93135 12.9334 11.0611 12.0529C12.2074 11.1558 13.0381 9.87657 13.3869 8.41459C13.4534 8.182 13.3205 7.94942 13.0879 7.89958Z" fill="#5294FF"/>
</svg>
