<svg width="16" height="16" viewBox="0 0 16 16" fill="none" xmlns="http://www.w3.org/2000/svg">
<path fill-rule="evenodd" clip-rule="evenodd" d="M14 1H2C1.44772 1 1 1.44772 1 2V14C1 14.5523 1.44772 15 2 15H14C14.5523 15 15 14.5523 15 14V2C15 1.44772 14.5523 1 14 1ZM2 0C0.895431 0 0 0.895431 0 2V14C0 15.1046 0.895431 16 2 16H14C15.1046 16 16 15.1046 16 14V2C16 0.895431 15.1046 0 14 0H2Z" fill="white"/>
<path d="M7.00146 11C7.00146 10.4477 7.44918 10 8.00146 10C8.55375 10 9.00146 10.4477 9.00146 11C9.00146 11.5523 8.55375 12 8.00146 12C7.44918 12 7.00146 11.5523 7.00146 11Z" fill="white"/>
<path d="M7.09943 4.99504C7.04615 4.46228 7.46451 4 7.99992 4C8.53533 4 8.9537 4.46228 8.90042 4.99504L8.54968 8.50248C8.52143 8.78492 8.28377 9 7.99992 9C7.71608 9 7.47842 8.78492 7.45017 8.50248L7.09943 4.99504Z" fill="white"/>
</svg>
